<svg width="500" height="500" xml:space="preserve" xmlns="http://www.w3.org/2000/svg">
    <g transform="translate(-15.19 -284.675)">
        <circle style="fill:#000;fill-opacity:1;stroke-width:26.0844;stroke-linecap:round;stroke-linejoin:round;stroke-opacity:.1;paint-order:markers stroke fill" cx="265.191" cy="534.675" r="250"/>
        <circle style="display:inline;fill:#ffda0a;fill-opacity:1;stroke-width:22.9543;stroke-linecap:round;stroke-linejoin:round;stroke-opacity:.1;paint-order:markers stroke fill" cx="265.191" cy="534.675" r="230"/>
        <path style="fill:#ffa60a;stroke-linecap:round;stroke-linejoin:round;paint-order:markers stroke fill" d="m353.984 322.527-19.3 19.301a17.5 17.5 0 0 0 0 24.75 17.5 17.5 0 0 0 24.75 0l27.171-27.172a230 230 0 0 0-32.62-16.879zm60.948 37.66-68.424 68.424a17.5 17.5 0 0 0 0 24.748 17.5 17.5 0 0 0 24.748 0l68.424-68.423a230 230 0 0 0-24.748-24.748Zm45.529 53.075-27.172 27.172a17.5 17.5 0 0 0 0 24.748 17.5 17.5 0 0 0 24.748 0l19.3-19.301a230 230 0 0 0-16.876-32.62ZM84.719 599.043a17.5 17.5 0 0 0-12.373 5.125L53.344 623.17a230 230 0 0 0 16.693 32.803l27.057-27.057a17.5 17.5 0 0 0 0-24.748 17.5 17.5 0 0 0-12.375-5.125zm86.783 11.822a17.5 17.5 0 0 0-12.375 5.127L90.709 684.41a230 230 0 0 0 24.746 24.75l68.42-68.42a17.5 17.5 0 0 0 0-24.748 17.5 17.5 0 0 0-12.373-5.127zm11.822 86.781a17.5 17.5 0 0 0-12.375 5.125l-27.056 27.057a230 230 0 0 0 32.804 16.693l19-19a17.5 17.5 0 0 0 0-24.75 17.5 17.5 0 0 0-12.373-5.125z"/>
        <path d="M357.24 551.211v94.87a8.676 8.676 0 0 1-8.683 8.685 8.676 8.676 0 0 1-8.684-8.684v-94.87c-14.945-3.882-26.052-17.36-26.052-33.503 0-16.144 11.107-29.621 26.052-33.503V423.27a8.676 8.676 0 0 1 8.684-8.684 8.676 8.676 0 0 1 8.684 8.684v60.937c14.945 3.882 26.051 17.36 26.051 33.503s-11.106 29.62-26.051 33.502zm-83.365 80.628v14.243a8.676 8.676 0 0 1-8.684 8.684 8.676 8.676 0 0 1-8.684-8.684v-14.243c-14.945-3.881-26.052-17.359-26.052-33.502 0-16.144 11.107-29.621 26.052-33.503V423.27a8.676 8.676 0 0 1 8.684-8.684 8.676 8.676 0 0 1 8.684 8.684v141.565c14.945 3.882 26.052 17.36 26.052 33.503s-11.107 29.62-26.052 33.502zm-83.366-130.692v144.935a8.676 8.676 0 0 1-8.684 8.684 8.676 8.676 0 0 1-8.684-8.684V501.147c-14.945-3.882-26.052-17.36-26.052-33.503s11.107-29.62 26.052-33.503V423.27a8.676 8.676 0 0 1 8.684-8.684 8.676 8.676 0 0 1 8.684 8.684v10.872c14.945 3.882 26.052 17.36 26.052 33.503s-11.107 29.621-26.052 33.503z" style="fill:#000;fill-opacity:1;stroke-width:8.68393"/>
    </g>
</svg>
