<svg width="2846" height="500" xml:space="preserve" xmlns="http://www.w3.org/2000/svg">
    <g transform="translate(-15.191 -276.065)">
        <circle style="fill:#000;fill-opacity:1;stroke-width:26.0844;stroke-linecap:round;stroke-linejoin:round;stroke-opacity:.1;paint-order:markers stroke fill" cx="265.191" cy="534.675" r="250" transform="translate(0 -8.61)"/>
        <circle style="display:inline;fill:#ffda0a;fill-opacity:1;stroke-width:22.9543;stroke-linecap:round;stroke-linejoin:round;stroke-opacity:.1;paint-order:markers stroke fill" cx="265.191" cy="534.675" r="230" transform="translate(0 -8.61)"/>
        <path style="fill:#ffa60a;stroke-width:20;stroke-linecap:round;stroke-linejoin:round;stroke-opacity:.1;paint-order:markers stroke fill" d="m224.979 335.445-19.301 19.3a17.5 17.5 0 0 0 0 24.75 17.5 17.5 0 0 0 24.75 0l27.172-27.172a230 230 0 0 0-32.621-16.878zm60.947 37.66-68.424 68.423a17.5 17.5 0 0 0 0 24.749 17.5 17.5 0 0 0 24.748 0l68.424-68.424a230 230 0 0 0-24.748-24.748zm45.53 53.074-27.173 27.172a17.5 17.5 0 0 0 0 24.748 17.5 17.5 0 0 0 24.748 0l19.301-19.301a230 230 0 0 0-16.877-32.62zm-266.454 4.539c-2.791.124-5.104.657-6.86 1.646-21.31 12.013-27.609 128.87-17.292 191.747a17.5 17.5 0 0 0-10.729 4.798l-68.418 68.418a230 230 0 0 0 24.746 24.75l64.498-64.498c1.494 2.33 3.103 4.049 4.825 5.067 27.754 16.407 200.283-80.847 200.615-113.086.311-30.225-149.513-120.696-191.385-118.842ZM-44.287 611.96a17.5 17.5 0 0 0-12.373 5.125l-19.002 19.002a230 230 0 0 0 16.693 32.803l27.057-27.057a17.5 17.5 0 0 0 0-24.748 17.5 17.5 0 0 0-12.375-5.125zm98.606 98.604a17.5 17.5 0 0 0-12.375 5.125l-27.057 27.056a230 230 0 0 0 32.805 16.694l19-19a17.5 17.5 0 0 0 0-24.75 17.5 17.5 0 0 0-12.373-5.125z" transform="translate(129.005 -21.527)"/>
    </g>
    <path style="font-weight:600;font-size:385.529px;line-height:1;font-family:Montserrat;-inkscape-font-specification:'Montserrat Semi-Bold';letter-spacing:16.0637px;word-spacing:4.01593px;fill:#fff;fill-opacity:1;stroke-width:140.558;stroke-linecap:round;stroke-linejoin:round;paint-order:markers stroke fill" d="M580.246 396.887v-269.87h41.252l169.247 207.8h-20.433v-207.8h49.733v269.87h-41.252l-169.247-207.8h20.433v207.8zm450.555 0V355.25l-2.699-8.867v-72.865q0-21.204-12.723-32.77-12.722-11.951-38.552-11.951-17.35 0-34.312 5.397-16.578 5.397-28.144 15.036l-18.891-35.083q16.578-12.723 39.324-18.891 23.132-6.554 47.806-6.554 44.72 0 69.01 21.59 24.673 21.203 24.673 65.925v120.67zm-64.77 2.699q-23.13 0-40.48-7.71-17.349-8.097-26.987-21.976-9.252-14.264-9.252-31.999 0-17.348 8.096-31.228 8.481-13.879 27.372-21.975 18.891-8.096 50.119-8.096h59.757v32h-56.287q-24.674 0-33.156 8.095-8.481 7.71-8.481 19.277 0 13.108 10.409 20.818 10.41 7.71 28.915 7.71 17.734 0 31.613-8.095 14.264-8.096 20.433-23.903l8.096 28.915q-6.94 18.12-25.06 28.143-17.734 10.024-45.106 10.024zm159.867-2.699 90.6-117.972-.772 25.83-86.358-113.73h53.588l60.528 80.96h-20.433l60.914-80.96h52.046l-87.13 113.73.386-25.83 90.214 117.972h-54.36l-63.612-85.973 20.048 2.699-62.456 83.274zm265.115 0V191.015h48.191v205.872zm24.289-239.799q-13.494 0-22.36-8.481-8.483-8.482-8.483-20.433 0-12.337 8.482-20.433 8.867-8.482 22.36-8.482 13.494 0 21.976 8.096 8.867 7.71 8.867 19.662 0 12.722-8.482 21.59-8.481 8.481-22.36 8.481zm191.479 243.655q-31.613 0-60.528-8.868-28.915-9.252-45.878-23.517l17.349-38.938q16.192 12.722 40.095 21.204 23.903 8.481 48.962 8.481 21.204 0 34.312-4.626 13.108-4.626 19.276-12.337 6.169-8.096 6.169-18.12 0-12.337-8.867-19.662-8.867-7.71-23.132-11.951-13.879-4.626-31.228-8.482-16.963-3.855-34.312-8.867-16.963-5.397-31.228-13.493-13.879-8.482-22.746-22.361-8.867-13.88-8.867-35.469 0-21.975 11.566-40.095 11.951-18.505 35.854-29.3 24.288-11.18 61.299-11.18 24.288 0 48.191 6.168 23.903 6.169 41.637 17.734l-15.806 38.939q-18.12-10.795-37.397-15.807-19.276-5.397-37.01-5.397-20.82 0-33.927 5.012-12.723 5.012-18.891 13.108-5.783 8.096-5.783 18.505 0 12.337 8.482 20.048 8.867 7.325 22.746 11.565 14.264 4.241 31.613 8.482 17.35 3.855 34.312 8.867 17.35 5.012 31.228 13.108 14.265 8.096 22.746 21.975 8.868 13.88 8.868 35.084 0 21.59-11.952 40.095-11.566 18.12-35.854 29.3-24.288 10.795-61.3 10.795zm247.766-1.157q-33.926 0-52.432-17.349-18.505-17.734-18.505-52.046V145.522h48.191v183.513q0 14.65 7.325 22.746 7.71 8.096 21.204 8.096 16.193 0 26.987-8.481l13.494 34.312q-8.482 6.94-20.819 10.41-12.337 3.469-25.445 3.469zm-104.862-170.018v-38.553h137.248v38.553zm294.03 170.018q-26.216 0-46.264-9.638-20.047-10.024-31.228-30.072-11.18-20.433-11.18-51.275V191.015h48.191v111.032q0 27.758 12.337 41.637 12.722 13.494 35.854 13.494 16.963 0 29.3-6.94 12.723-6.94 19.662-20.818 7.325-13.88 7.325-34.312V191.015h48.192v205.872h-45.878v-55.516l8.096 16.963q-10.41 20.048-30.457 30.843-20.048 10.409-43.95 10.409zm278.609 0q-29.686 0-53.59-13.108-23.516-13.494-37.01-37.01-13.493-23.518-13.493-55.517 0-31.999 13.493-55.516 13.494-23.517 37.01-36.625 23.904-13.108 53.59-13.108 25.83 0 46.263 11.565 20.433 11.18 32.384 34.313 11.952 23.131 11.952 59.371 0 35.854-11.566 59.371-11.566 23.132-31.999 34.698-20.433 11.566-47.035 11.566zm5.782-41.252q17.35 0 30.843-7.71 13.879-7.71 21.975-22.36 8.482-14.651 8.482-34.313 0-20.047-8.482-34.312-8.096-14.65-21.975-22.36-13.494-7.711-30.843-7.711-17.348 0-31.227 7.71-13.494 7.71-21.976 22.36-8.096 14.266-8.096 34.313 0 19.662 8.096 34.312 8.482 14.65 21.976 22.36 13.879 7.711 31.227 7.711zm62.456 38.553v-48.576l1.928-54.745-3.855-54.746V110.825h47.805v286.062zm125.554 0V191.015h48.191v205.872zm24.288-239.799q-13.493 0-22.36-8.481-8.482-8.482-8.482-20.433 0-12.337 8.482-20.433 8.867-8.482 22.36-8.482 13.494 0 21.976 8.096 8.867 7.71 8.867 19.662 0 12.722-8.482 21.59-8.482 8.481-22.36 8.481zm195.72 242.498q-31.613 0-56.287-13.494-24.674-13.879-38.938-37.781-14.265-23.903-14.265-54.36 0-30.842 14.265-54.36 14.264-23.902 38.938-37.396 24.674-13.493 56.287-13.493 32 0 56.673 13.493 25.06 13.494 38.939 37.01Q2846 262.723 2846 293.951q0 30.457-14.264 54.36-13.88 23.902-38.939 37.781-24.674 13.494-56.673 13.494zm0-41.252q17.735 0 31.614-7.71 13.879-7.71 21.59-22.36 8.096-14.651 8.096-34.313 0-20.047-8.097-34.312-7.71-14.65-21.59-22.36-13.878-7.711-31.227-7.711-17.734 0-31.613 7.71-13.494 7.71-21.59 22.36-8.096 14.266-8.096 34.313 0 19.662 8.096 34.312 8.096 14.65 21.59 22.36 13.879 7.711 31.227 7.711z" aria-label="NaxiStudio"/>
</svg>
